<mxfile host="app.diagrams.net" modified="2024-07-10T11:57:10.970Z" agent="Mozilla/5.0 (Windows NT 10.0; Win64; x64; rv:129.0) Gecko/20100101 Firefox/129.0" etag="P1IZLOpbi-8PafUB3nzQ" version="24.6.4" type="github">
  <diagram name="Page-1" id="dANJbhJCv3SXg1ANljv2">
    <mxGraphModel dx="2569" dy="993" grid="1" gridSize="10" guides="1" tooltips="1" connect="1" arrows="1" fold="1" page="1" pageScale="1" pageWidth="827" pageHeight="1169" math="0" shadow="0">
      <root>
        <mxCell id="0" />
        <mxCell id="1" parent="0" />
        <mxCell id="OGuhP4DFMnq8pK-vMAb8-1" value="Typical Scenario" style="ellipse;whiteSpace=wrap;html=1;aspect=fixed;" vertex="1" parent="1">
          <mxGeometry x="61" y="780" width="80" height="80" as="geometry" />
        </mxCell>
        <mxCell id="OGuhP4DFMnq8pK-vMAb8-2" value="" style="curved=1;endArrow=classic;html=1;rounded=0;exitX=0;exitY=0;exitDx=0;exitDy=0;entryX=0.5;entryY=0;entryDx=0;entryDy=0;" edge="1" parent="1" source="OGuhP4DFMnq8pK-vMAb8-1" target="OGuhP4DFMnq8pK-vMAb8-1">
          <mxGeometry width="50" height="50" relative="1" as="geometry">
            <mxPoint x="497" y="790" as="sourcePoint" />
            <mxPoint x="547" y="740" as="targetPoint" />
            <Array as="points">
              <mxPoint x="73" y="740" />
            </Array>
          </mxGeometry>
        </mxCell>
        <mxCell id="OGuhP4DFMnq8pK-vMAb8-3" value="No issue" style="text;html=1;strokeColor=none;fillColor=none;align=center;verticalAlign=middle;whiteSpace=wrap;rounded=0;" vertex="1" parent="1">
          <mxGeometry x="50" y="727" width="60" height="30" as="geometry" />
        </mxCell>
        <mxCell id="OGuhP4DFMnq8pK-vMAb8-4" style="edgeStyle=orthogonalEdgeStyle;rounded=0;orthogonalLoop=1;jettySize=auto;html=1;entryX=0.5;entryY=0;entryDx=0;entryDy=0;" edge="1" parent="1" source="OGuhP4DFMnq8pK-vMAb8-5" target="OGuhP4DFMnq8pK-vMAb8-10">
          <mxGeometry relative="1" as="geometry" />
        </mxCell>
        <mxCell id="OGuhP4DFMnq8pK-vMAb8-5" value="Contact Driver" style="shape=process;whiteSpace=wrap;html=1;backgroundOutline=1;" vertex="1" parent="1">
          <mxGeometry x="191" y="690" width="120" height="60" as="geometry" />
        </mxCell>
        <mxCell id="OGuhP4DFMnq8pK-vMAb8-6" value="" style="curved=1;endArrow=classic;html=1;rounded=0;exitX=1;exitY=0;exitDx=0;exitDy=0;entryX=0;entryY=0.5;entryDx=0;entryDy=0;" edge="1" parent="1" source="OGuhP4DFMnq8pK-vMAb8-1" target="OGuhP4DFMnq8pK-vMAb8-5">
          <mxGeometry width="50" height="50" relative="1" as="geometry">
            <mxPoint x="83" y="802" as="sourcePoint" />
            <mxPoint x="111" y="790" as="targetPoint" />
            <Array as="points">
              <mxPoint x="141" y="720" />
            </Array>
          </mxGeometry>
        </mxCell>
        <mxCell id="OGuhP4DFMnq8pK-vMAb8-7" value="SPAD" style="text;html=1;align=center;verticalAlign=middle;whiteSpace=wrap;rounded=0;rotation=-30;" vertex="1" parent="1">
          <mxGeometry x="110" y="705" width="60" height="30" as="geometry" />
        </mxCell>
        <mxCell id="OGuhP4DFMnq8pK-vMAb8-8" value="" style="curved=1;endArrow=classic;html=1;rounded=0;exitX=0.25;exitY=1;exitDx=0;exitDy=0;entryX=1;entryY=0.5;entryDx=0;entryDy=0;" edge="1" parent="1" source="OGuhP4DFMnq8pK-vMAb8-5" target="OGuhP4DFMnq8pK-vMAb8-1">
          <mxGeometry width="50" height="50" relative="1" as="geometry">
            <mxPoint x="93" y="812" as="sourcePoint" />
            <mxPoint x="121" y="800" as="targetPoint" />
            <Array as="points">
              <mxPoint x="181" y="810" />
            </Array>
          </mxGeometry>
        </mxCell>
        <mxCell id="OGuhP4DFMnq8pK-vMAb8-9" value="Driver fit to continue" style="text;html=1;align=center;verticalAlign=middle;whiteSpace=wrap;rounded=0;rotation=-45;" vertex="1" parent="1">
          <mxGeometry x="170" y="790" width="60" height="30" as="geometry" />
        </mxCell>
        <mxCell id="OGuhP4DFMnq8pK-vMAb8-10" value="Declare command fault (see table) on route" style="shape=offPageConnector;whiteSpace=wrap;html=1;direction=west;verticalAlign=bottom;" vertex="1" parent="1">
          <mxGeometry x="211" y="530" width="80" height="100" as="geometry" />
        </mxCell>
        <mxCell id="OGuhP4DFMnq8pK-vMAb8-11" style="edgeStyle=orthogonalEdgeStyle;rounded=0;orthogonalLoop=1;jettySize=auto;html=1;" edge="1" parent="1" source="OGuhP4DFMnq8pK-vMAb8-12" target="OGuhP4DFMnq8pK-vMAb8-17">
          <mxGeometry relative="1" as="geometry" />
        </mxCell>
        <mxCell id="OGuhP4DFMnq8pK-vMAb8-12" value="Dispatch Decision" style="ellipse;whiteSpace=wrap;html=1;aspect=fixed;" vertex="1" parent="1">
          <mxGeometry x="211" y="870" width="80" height="80" as="geometry" />
        </mxCell>
        <mxCell id="OGuhP4DFMnq8pK-vMAb8-13" value="" style="curved=1;endArrow=classic;html=1;rounded=0;exitX=0.638;exitY=0.963;exitDx=0;exitDy=0;entryX=0;entryY=0.5;entryDx=0;entryDy=0;exitPerimeter=0;" edge="1" parent="1" source="OGuhP4DFMnq8pK-vMAb8-1" target="OGuhP4DFMnq8pK-vMAb8-12">
          <mxGeometry width="50" height="50" relative="1" as="geometry">
            <mxPoint x="141" y="950" as="sourcePoint" />
            <mxPoint x="169" y="938" as="targetPoint" />
            <Array as="points">
              <mxPoint x="141" y="898" />
            </Array>
          </mxGeometry>
        </mxCell>
        <mxCell id="OGuhP4DFMnq8pK-vMAb8-14" value="Dispatch Issue" style="text;html=1;align=center;verticalAlign=middle;whiteSpace=wrap;rounded=0;rotation=25;" vertex="1" parent="1">
          <mxGeometry x="120" y="895" width="60" height="30" as="geometry" />
        </mxCell>
        <mxCell id="OGuhP4DFMnq8pK-vMAb8-15" value="" style="curved=1;endArrow=classic;html=1;rounded=0;exitX=0.5;exitY=0;exitDx=0;exitDy=0;entryX=0.675;entryY=1.067;entryDx=0;entryDy=0;entryPerimeter=0;" edge="1" parent="1" source="OGuhP4DFMnq8pK-vMAb8-12" target="OGuhP4DFMnq8pK-vMAb8-5">
          <mxGeometry width="50" height="50" relative="1" as="geometry">
            <mxPoint x="480" y="820" as="sourcePoint" />
            <mxPoint x="530" y="770" as="targetPoint" />
            <Array as="points">
              <mxPoint x="290" y="830" />
              <mxPoint x="290" y="780" />
            </Array>
          </mxGeometry>
        </mxCell>
        <mxCell id="OGuhP4DFMnq8pK-vMAb8-16" value="Track Intrusion" style="text;html=1;align=center;verticalAlign=middle;whiteSpace=wrap;rounded=0;rotation=-55;" vertex="1" parent="1">
          <mxGeometry x="280" y="820" width="60" height="30" as="geometry" />
        </mxCell>
        <mxCell id="OGuhP4DFMnq8pK-vMAb8-17" value="Contact Substation" style="shape=offPageConnector;whiteSpace=wrap;html=1;verticalAlign=top;" vertex="1" parent="1">
          <mxGeometry x="211" y="1000" width="80" height="80" as="geometry" />
        </mxCell>
        <mxCell id="OGuhP4DFMnq8pK-vMAb8-18" value="Non-urgent FAIL" style="text;html=1;align=center;verticalAlign=middle;whiteSpace=wrap;rounded=0;" vertex="1" parent="1">
          <mxGeometry x="250" y="960" width="80" height="30" as="geometry" />
        </mxCell>
        <mxCell id="OGuhP4DFMnq8pK-vMAb8-19" value="Input Specific Command" style="shape=process;whiteSpace=wrap;html=1;backgroundOutline=1;" vertex="1" parent="1">
          <mxGeometry x="386" y="800" width="120" height="60" as="geometry" />
        </mxCell>
        <mxCell id="OGuhP4DFMnq8pK-vMAb8-20" value="" style="curved=1;endArrow=classic;html=1;rounded=0;exitX=1;exitY=0.588;exitDx=0;exitDy=0;exitPerimeter=0;entryX=0.5;entryY=1;entryDx=0;entryDy=0;" edge="1" parent="1" source="OGuhP4DFMnq8pK-vMAb8-12" target="OGuhP4DFMnq8pK-vMAb8-19">
          <mxGeometry width="50" height="50" relative="1" as="geometry">
            <mxPoint x="440" y="700" as="sourcePoint" />
            <mxPoint x="490" y="650" as="targetPoint" />
            <Array as="points">
              <mxPoint x="340" y="930" />
              <mxPoint x="440" y="900" />
            </Array>
          </mxGeometry>
        </mxCell>
        <mxCell id="OGuhP4DFMnq8pK-vMAb8-21" value="Other Signal requirement" style="text;html=1;align=center;verticalAlign=middle;whiteSpace=wrap;rounded=0;" vertex="1" parent="1">
          <mxGeometry x="370" y="920" width="90" height="30" as="geometry" />
        </mxCell>
        <mxCell id="OGuhP4DFMnq8pK-vMAb8-22" value="No Reply" style="text;html=1;align=center;verticalAlign=middle;whiteSpace=wrap;rounded=0;" vertex="1" parent="1">
          <mxGeometry x="190" y="650" width="60" height="30" as="geometry" />
        </mxCell>
        <mxCell id="OGuhP4DFMnq8pK-vMAb8-23" value="" style="curved=1;endArrow=classic;html=1;rounded=0;exitX=0.5;exitY=0;exitDx=0;exitDy=0;entryX=1;entryY=0.5;entryDx=0;entryDy=0;" edge="1" parent="1" source="OGuhP4DFMnq8pK-vMAb8-19" target="OGuhP4DFMnq8pK-vMAb8-5">
          <mxGeometry width="50" height="50" relative="1" as="geometry">
            <mxPoint x="440" y="700" as="sourcePoint" />
            <mxPoint x="490" y="650" as="targetPoint" />
            <Array as="points">
              <mxPoint x="430" y="760" />
              <mxPoint x="370" y="720" />
            </Array>
          </mxGeometry>
        </mxCell>
        <mxCell id="OGuhP4DFMnq8pK-vMAb8-24" value="Driver &amp;gt;&amp;gt; 185m from signal" style="text;html=1;align=center;verticalAlign=middle;whiteSpace=wrap;rounded=0;rotation=24;" vertex="1" parent="1">
          <mxGeometry x="350" y="710" width="100" height="30" as="geometry" />
        </mxCell>
        <mxCell id="OGuhP4DFMnq8pK-vMAb8-25" value="" style="curved=1;endArrow=classic;html=1;rounded=0;exitX=0.5;exitY=0;exitDx=0;exitDy=0;" edge="1" parent="1" source="OGuhP4DFMnq8pK-vMAb8-19">
          <mxGeometry width="50" height="50" relative="1" as="geometry">
            <mxPoint x="545" y="765" as="sourcePoint" />
            <mxPoint x="550" y="730" as="targetPoint" />
            <Array as="points">
              <mxPoint x="470" y="750" />
              <mxPoint x="510" y="730" />
            </Array>
          </mxGeometry>
        </mxCell>
        <mxCell id="OGuhP4DFMnq8pK-vMAb8-26" value="Driver ~185m from signal" style="text;html=1;align=center;verticalAlign=middle;whiteSpace=wrap;rounded=0;rotation=-15;" vertex="1" parent="1">
          <mxGeometry x="450" y="705" width="100" height="30" as="geometry" />
        </mxCell>
        <mxCell id="OGuhP4DFMnq8pK-vMAb8-27" value="&lt;div&gt;Yellow Light&lt;/div&gt;&lt;div&gt;Lock Route&lt;br&gt;&lt;/div&gt;" style="ellipse;whiteSpace=wrap;html=1;aspect=fixed;" vertex="1" parent="1">
          <mxGeometry x="550" y="690" width="80" height="80" as="geometry" />
        </mxCell>
        <mxCell id="OGuhP4DFMnq8pK-vMAb8-28" value="" style="curved=1;endArrow=classic;html=1;rounded=0;exitX=0.5;exitY=0;exitDx=0;exitDy=0;entryX=1;entryY=0;entryDx=0;entryDy=0;" edge="1" parent="1" target="OGuhP4DFMnq8pK-vMAb8-5">
          <mxGeometry width="50" height="50" relative="1" as="geometry">
            <mxPoint x="567.5" y="700" as="sourcePoint" />
            <mxPoint x="432.5" y="620" as="targetPoint" />
            <Array as="points">
              <mxPoint x="551.5" y="660" />
              <mxPoint x="440" y="630" />
              <mxPoint x="340" y="640" />
            </Array>
          </mxGeometry>
        </mxCell>
        <mxCell id="OGuhP4DFMnq8pK-vMAb8-29" value="SPAD" style="text;html=1;align=center;verticalAlign=middle;whiteSpace=wrap;rounded=0;" vertex="1" parent="1">
          <mxGeometry x="390" y="600" width="60" height="30" as="geometry" />
        </mxCell>
        <mxCell id="OGuhP4DFMnq8pK-vMAb8-30" value="" style="curved=1;endArrow=classic;html=1;rounded=0;exitX=1;exitY=0.5;exitDx=0;exitDy=0;entryX=0;entryY=0.5;entryDx=0;entryDy=0;" edge="1" parent="1" source="OGuhP4DFMnq8pK-vMAb8-19" target="OGuhP4DFMnq8pK-vMAb8-10">
          <mxGeometry width="50" height="50" relative="1" as="geometry">
            <mxPoint x="685" y="875" as="sourcePoint" />
            <mxPoint x="570" y="590" as="targetPoint" />
            <Array as="points">
              <mxPoint x="669" y="835" />
              <mxPoint x="670" y="580" />
              <mxPoint x="460" y="540" />
            </Array>
          </mxGeometry>
        </mxCell>
        <mxCell id="OGuhP4DFMnq8pK-vMAb8-31" value="Driver &amp;lt; 185m from signal" style="text;html=1;align=center;verticalAlign=middle;whiteSpace=wrap;rounded=0;rotation=-15;" vertex="1" parent="1">
          <mxGeometry x="640" y="770" width="130" height="30" as="geometry" />
        </mxCell>
        <mxCell id="OGuhP4DFMnq8pK-vMAb8-32" value="" style="curved=1;endArrow=classic;html=1;rounded=0;exitX=0.5;exitY=1;exitDx=0;exitDy=0;entryX=0.413;entryY=0.988;entryDx=0;entryDy=0;entryPerimeter=0;" edge="1" parent="1" source="OGuhP4DFMnq8pK-vMAb8-27" target="OGuhP4DFMnq8pK-vMAb8-1">
          <mxGeometry width="50" height="50" relative="1" as="geometry">
            <mxPoint x="695" y="970" as="sourcePoint" />
            <mxPoint x="60" y="1090" as="targetPoint" />
            <Array as="points">
              <mxPoint x="660" y="820" />
              <mxPoint x="700" y="920" />
              <mxPoint x="660" y="1040" />
              <mxPoint x="440" y="1150" />
              <mxPoint x="40" y="1140" />
            </Array>
          </mxGeometry>
        </mxCell>
        <mxCell id="OGuhP4DFMnq8pK-vMAb8-33" value="Yellow acknowledged" style="text;html=1;align=center;verticalAlign=middle;whiteSpace=wrap;rounded=0;" vertex="1" parent="1">
          <mxGeometry x="350" y="1100" width="60" height="30" as="geometry" />
        </mxCell>
        <mxCell id="OGuhP4DFMnq8pK-vMAb8-34" value="" style="ellipse;whiteSpace=wrap;html=1;aspect=fixed;" vertex="1" parent="1">
          <mxGeometry x="1187.5" y="849" width="101" height="101" as="geometry" />
        </mxCell>
        <mxCell id="OGuhP4DFMnq8pK-vMAb8-35" value="Typical Scenario" style="ellipse;whiteSpace=wrap;html=1;aspect=fixed;" vertex="1" parent="1">
          <mxGeometry x="937.5" y="680" width="80" height="80" as="geometry" />
        </mxCell>
        <mxCell id="OGuhP4DFMnq8pK-vMAb8-36" value="No issue" style="text;html=1;strokeColor=none;fillColor=none;align=center;verticalAlign=middle;whiteSpace=wrap;rounded=0;" vertex="1" parent="1">
          <mxGeometry x="850" y="705" width="60" height="30" as="geometry" />
        </mxCell>
        <mxCell id="OGuhP4DFMnq8pK-vMAb8-38" value="" style="curved=1;endArrow=classic;html=1;rounded=0;exitX=1;exitY=0;exitDx=0;exitDy=0;entryX=0;entryY=0;entryDx=0;entryDy=0;" edge="1" parent="1" source="OGuhP4DFMnq8pK-vMAb8-35">
          <mxGeometry width="50" height="50" relative="1" as="geometry">
            <mxPoint x="837.5" y="730" as="sourcePoint" />
            <mxPoint x="1119.215728752491" y="691.7157287524913" as="targetPoint" />
            <Array as="points">
              <mxPoint x="1070" y="650" />
            </Array>
          </mxGeometry>
        </mxCell>
        <mxCell id="OGuhP4DFMnq8pK-vMAb8-39" value="Issue Raised" style="text;html=1;strokeColor=none;fillColor=none;align=center;verticalAlign=middle;whiteSpace=wrap;rounded=0;" vertex="1" parent="1">
          <mxGeometry x="1045" y="630" width="60" height="30" as="geometry" />
        </mxCell>
        <mxCell id="OGuhP4DFMnq8pK-vMAb8-40" value="" style="curved=1;endArrow=classic;html=1;rounded=0;exitX=0;exitY=1;exitDx=0;exitDy=0;" edge="1" parent="1" target="OGuhP4DFMnq8pK-vMAb8-35">
          <mxGeometry width="50" height="50" relative="1" as="geometry">
            <mxPoint x="1119.215728752491" y="748.2842712475085" as="sourcePoint" />
            <mxPoint x="1027.5" y="810" as="targetPoint" />
            <Array as="points">
              <mxPoint x="1060" y="780" />
            </Array>
          </mxGeometry>
        </mxCell>
        <mxCell id="OGuhP4DFMnq8pK-vMAb8-41" value="Issue Resolved" style="text;html=1;strokeColor=none;fillColor=none;align=center;verticalAlign=middle;whiteSpace=wrap;rounded=0;" vertex="1" parent="1">
          <mxGeometry x="1032.5" y="770" width="60" height="30" as="geometry" />
        </mxCell>
        <mxCell id="OGuhP4DFMnq8pK-vMAb8-42" value="Honk" style="ellipse;whiteSpace=wrap;html=1;aspect=fixed;" vertex="1" parent="1">
          <mxGeometry x="1237.5" y="570" width="50" height="50" as="geometry" />
        </mxCell>
        <mxCell id="OGuhP4DFMnq8pK-vMAb8-43" value="Emergency Stop" style="ellipse;whiteSpace=wrap;html=1;aspect=fixed;" vertex="1" parent="1">
          <mxGeometry x="1197.5" y="860" width="80" height="80" as="geometry" />
        </mxCell>
        <mxCell id="OGuhP4DFMnq8pK-vMAb8-44" value="" style="curved=1;endArrow=classic;html=1;rounded=0;exitX=1;exitY=0;exitDx=0;exitDy=0;" edge="1" parent="1" target="OGuhP4DFMnq8pK-vMAb8-42">
          <mxGeometry width="50" height="50" relative="1" as="geometry">
            <mxPoint x="1175.7842712475094" y="691.7157287524906" as="sourcePoint" />
            <mxPoint x="887.5" y="760" as="targetPoint" />
            <Array as="points">
              <mxPoint x="1200" y="640" />
            </Array>
          </mxGeometry>
        </mxCell>
        <mxCell id="OGuhP4DFMnq8pK-vMAb8-45" value="Out of stopping distance" style="text;html=1;strokeColor=none;fillColor=none;align=center;verticalAlign=middle;whiteSpace=wrap;rounded=0;rotation=-30;" vertex="1" parent="1">
          <mxGeometry x="1137.5" y="620" width="100" height="30" as="geometry" />
        </mxCell>
        <mxCell id="OGuhP4DFMnq8pK-vMAb8-46" value="" style="curved=1;endArrow=classic;html=1;rounded=0;exitX=0;exitY=0;exitDx=0;exitDy=0;entryX=0.5;entryY=0;entryDx=0;entryDy=0;" edge="1" parent="1" source="OGuhP4DFMnq8pK-vMAb8-42" target="OGuhP4DFMnq8pK-vMAb8-35">
          <mxGeometry width="50" height="50" relative="1" as="geometry">
            <mxPoint x="1107.5" y="540" as="sourcePoint" />
            <mxPoint x="1157.5" y="490" as="targetPoint" />
            <Array as="points">
              <mxPoint x="1157.5" y="540" />
              <mxPoint x="1017.5" y="560" />
            </Array>
          </mxGeometry>
        </mxCell>
        <mxCell id="OGuhP4DFMnq8pK-vMAb8-47" value="Anomaly Resolved" style="text;html=1;strokeColor=none;fillColor=none;align=center;verticalAlign=middle;whiteSpace=wrap;rounded=0;" vertex="1" parent="1">
          <mxGeometry x="1077.5" y="520" width="60" height="30" as="geometry" />
        </mxCell>
        <mxCell id="OGuhP4DFMnq8pK-vMAb8-48" value="Relay issue to Signaller" style="shape=process;whiteSpace=wrap;html=1;backgroundOutline=1;" vertex="1" parent="1">
          <mxGeometry x="1417.5" y="640" width="120" height="60" as="geometry" />
        </mxCell>
        <mxCell id="OGuhP4DFMnq8pK-vMAb8-49" value="" style="curved=1;endArrow=classic;html=1;rounded=0;exitX=1;exitY=0;exitDx=0;exitDy=0;" edge="1" parent="1" source="OGuhP4DFMnq8pK-vMAb8-42" target="OGuhP4DFMnq8pK-vMAb8-48">
          <mxGeometry width="50" height="50" relative="1" as="geometry">
            <mxPoint x="1387.5" y="490" as="sourcePoint" />
            <mxPoint x="1437.5" y="440" as="targetPoint" />
            <Array as="points">
              <mxPoint x="1360" y="570" />
            </Array>
          </mxGeometry>
        </mxCell>
        <mxCell id="OGuhP4DFMnq8pK-vMAb8-50" value="No reaction" style="text;html=1;strokeColor=none;fillColor=none;align=center;verticalAlign=middle;whiteSpace=wrap;rounded=0;rotation=15;" vertex="1" parent="1">
          <mxGeometry x="1337.5" y="555" width="60" height="30" as="geometry" />
        </mxCell>
        <mxCell id="OGuhP4DFMnq8pK-vMAb8-51" value="" style="endArrow=classic;html=1;rounded=0;exitX=1;exitY=0.5;exitDx=0;exitDy=0;entryX=0;entryY=0.75;entryDx=0;entryDy=0;" edge="1" parent="1" source="OGuhP4DFMnq8pK-vMAb8-58" target="OGuhP4DFMnq8pK-vMAb8-48">
          <mxGeometry width="50" height="50" relative="1" as="geometry">
            <mxPoint x="1187.5000000000332" y="720" as="sourcePoint" />
            <mxPoint x="1207.5" y="680" as="targetPoint" />
          </mxGeometry>
        </mxCell>
        <mxCell id="OGuhP4DFMnq8pK-vMAb8-52" value="Close to or within stopping distance" style="text;html=1;strokeColor=none;fillColor=none;align=center;verticalAlign=middle;whiteSpace=wrap;rounded=0;" vertex="1" parent="1">
          <mxGeometry x="1277.5" y="670" width="60" height="80" as="geometry" />
        </mxCell>
        <mxCell id="OGuhP4DFMnq8pK-vMAb8-53" value="&lt;div&gt;Issue not&lt;/div&gt;&lt;div&gt;Resolved&lt;br&gt;&lt;/div&gt;" style="endArrow=classic;html=1;rounded=0;entryX=0.838;entryY=0.063;entryDx=0;entryDy=0;entryPerimeter=0;exitX=0.75;exitY=1;exitDx=0;exitDy=0;" edge="1" parent="1" source="OGuhP4DFMnq8pK-vMAb8-48" target="OGuhP4DFMnq8pK-vMAb8-43">
          <mxGeometry x="-0.0321" width="50" height="50" relative="1" as="geometry">
            <mxPoint x="1417.5" y="720" as="sourcePoint" />
            <mxPoint x="1207.5" y="790" as="targetPoint" />
            <Array as="points" />
            <mxPoint as="offset" />
          </mxGeometry>
        </mxCell>
        <mxCell id="OGuhP4DFMnq8pK-vMAb8-54" value="Issue Resolved" style="curved=1;endArrow=classic;html=1;rounded=0;exitX=0.333;exitY=1.05;exitDx=0;exitDy=0;exitPerimeter=0;entryX=0.5;entryY=1;entryDx=0;entryDy=0;" edge="1" parent="1" source="OGuhP4DFMnq8pK-vMAb8-48" target="OGuhP4DFMnq8pK-vMAb8-35">
          <mxGeometry x="-0.1114" y="-63" width="50" height="50" relative="1" as="geometry">
            <mxPoint x="1477.5" y="930" as="sourcePoint" />
            <mxPoint x="1527.5" y="880" as="targetPoint" />
            <Array as="points">
              <mxPoint x="1110" y="960" />
            </Array>
            <mxPoint as="offset" />
          </mxGeometry>
        </mxCell>
        <mxCell id="OGuhP4DFMnq8pK-vMAb8-55" value="" style="curved=1;endArrow=classic;html=1;rounded=0;exitX=0;exitY=0;exitDx=0;exitDy=0;entryX=0.019;entryY=0.754;entryDx=0;entryDy=0;entryPerimeter=0;" edge="1" parent="1" source="OGuhP4DFMnq8pK-vMAb8-35" target="OGuhP4DFMnq8pK-vMAb8-35">
          <mxGeometry width="50" height="50" relative="1" as="geometry">
            <mxPoint x="1370" y="760" as="sourcePoint" />
            <mxPoint x="1420" y="710" as="targetPoint" />
            <Array as="points">
              <mxPoint x="890" y="720" />
            </Array>
          </mxGeometry>
        </mxCell>
        <mxCell id="OGuhP4DFMnq8pK-vMAb8-57" value="" style="curved=1;endArrow=classic;html=1;rounded=0;exitX=0.5;exitY=0;exitDx=0;exitDy=0;entryX=0.187;entryY=-0.072;entryDx=0;entryDy=0;dashed=1;dashPattern=8 8;entryPerimeter=0;" edge="1" parent="1" source="OGuhP4DFMnq8pK-vMAb8-5" target="OGuhP4DFMnq8pK-vMAb8-58">
          <mxGeometry width="50" height="50" relative="1" as="geometry">
            <mxPoint x="506" y="430" as="sourcePoint" />
            <mxPoint x="1109.215728752491" y="301.71572875249126" as="targetPoint" />
            <Array as="points">
              <mxPoint x="160" y="680" />
              <mxPoint x="150" y="520" />
              <mxPoint x="510" y="460" />
              <mxPoint x="670" y="470" />
              <mxPoint x="810" y="500" />
              <mxPoint x="910" y="550" />
              <mxPoint x="1010" y="640" />
            </Array>
          </mxGeometry>
        </mxCell>
        <mxCell id="OGuhP4DFMnq8pK-vMAb8-59" value="" style="endArrow=classic;html=1;rounded=0;exitX=1;exitY=0.5;exitDx=0;exitDy=0;entryX=0;entryY=0.75;entryDx=0;entryDy=0;" edge="1" parent="1" target="OGuhP4DFMnq8pK-vMAb8-58">
          <mxGeometry width="50" height="50" relative="1" as="geometry">
            <mxPoint x="1187.5000000000332" y="720" as="sourcePoint" />
            <mxPoint x="1418" y="685" as="targetPoint" />
          </mxGeometry>
        </mxCell>
        <mxCell id="OGuhP4DFMnq8pK-vMAb8-58" value="Scenario Evaluation" style="shape=process;whiteSpace=wrap;html=1;backgroundOutline=1;" vertex="1" parent="1">
          <mxGeometry x="1092.5" y="690" width="120" height="60" as="geometry" />
        </mxCell>
      </root>
    </mxGraphModel>
  </diagram>
</mxfile>
